<?xml version="1.0" encoding="UTF-8"?>
<svg width="32px" height="32px" viewBox="0 0 32 32" version="1.1" xmlns="http://www.w3.org/2000/svg" xmlns:xlink="http://www.w3.org/1999/xlink">
    <!-- Generator: Sketch 51.2 (57519) - http://www.bohemiancoding.com/sketch -->
    <title>linkedin</title>
    <desc>Created with Sketch.</desc>
    <defs></defs>
    <g id="Page-1" stroke="none" stroke-width="1" fill="none" fill-rule="evenodd">
        <path d="M0,16 C0,7.163 7.163,0 16,0 C24.836,0 32,7.164 32,16 C32,24.836 24.836,32 16,32 C7.164,32 0,24.837 0,16 Z M23.247,21.927 L23.247,16.567 C23.247,13.695 21.714,12.359 19.67,12.359 C18.021,12.359 17.282,13.266 16.87,13.903 L16.87,12.579 L13.763,12.579 C13.804,13.456 13.763,21.927 13.763,21.927 L16.87,21.927 L16.87,16.706 C16.87,16.427 16.89,16.148 16.973,15.949 C17.197,15.391 17.708,14.813 18.566,14.813 C19.691,14.813 20.14,15.67 20.14,16.926 L20.14,21.927 L23.247,21.927 Z M10.49,11.303 C11.573,11.303 12.248,10.585 12.248,9.687 C12.228,8.77 11.573,8.073 10.51,8.073 C9.447,8.073 8.753,8.77 8.753,9.687 C8.753,10.584 9.428,11.303 10.47,11.303 L10.49,11.303 Z M12.043,21.927 L12.043,12.579 L8.937,12.579 L8.937,21.927 L12.043,21.927 Z" id="Combined-Shape" fill="#FFFFFF" fill-rule="nonzero"></path>
    </g>
</svg>